<svg xmlns="http://www.w3.org/2000/svg" xmlns:xlink="http://www.w3.org/1999/xlink" width="15" height="15" viewBox="0 0 24 24">
  <defs>
    <path id="delete-a" d="M7,4 L7,1 C7,0.44771525 7.44771525,0 8,0 L16,0 C16.5522847,0 17,0.44771525 17,1 L17,4 L23,4 C23.5522847,4 24,4.44771525 24,5 C24,5.55228475 23.5522847,6 23,6 L21,6 L21,23 C21,23.5522847 20.5522847,24 20,24 L4,24 C3.44771525,24 3,23.5522847 3,23 L3,6 L1,6 C0.44771525,6 0,5.55228475 0,5 C0,4.44771525 0.44771525,4 1,4 L7,4 Z M9,4 L15,4 L15,2 L9,2 L9,4 Z M19,6 L5,6 L5,22 L19,22 L19,6 Z M11,11 C11,10.4477153 11.4477153,10 12,10 C12.5522847,10 13,10.4477153 13,11 L13,17 C13,17.5522847 12.5522847,18 12,18 C11.4477153,18 11,17.5522847 11,17 L11,11 Z M7,11 C7,10.4477153 7.44771525,10 8,10 C8.55228475,10 9,10.4477153 9,11 L9,17 C9,17.5522847 8.55228475,18 8,18 C7.44771525,18 7,17.5522847 7,17 L7,11 Z M15,11 C15,10.4477153 15.4477153,10 16,10 C16.5522847,10 17,10.4477153 17,11 L17,17 C17,17.5522847 16.5522847,18 16,18 C15.4477153,18 15,17.5522847 15,17 L15,11 Z"/>
  </defs>
  <use fill="#f5222d" fill-rule="evenodd" xlink:href="#delete-a"/>
</svg>
