<svg viewBox="0 0 512 512" xmlns="http://www.w3.org/2000/svg"><g id="_x32_73-readme"><g><path d="M447.905,88.731H336.261c-38.413,0-71.796,26.595-80.181,64.128    c-8.465-37.534-41.767-64.128-80.181-64.128H64.334c-21.163,0-38.333,17.17-38.333,38.333v196.299    c0,21.161,17.17,38.331,38.333,38.331h71.636c81.617,0,105.975,19.487,117.634,59.897c0.56,2.236,4.153,2.236,4.79,0    c11.742-40.41,36.099-59.897,117.637-59.897h71.636c21.163,0,38.333-17.17,38.333-38.331V127.144    C485.999,106.061,468.987,88.891,447.905,88.731z" style="fill:#388DD2;"/><path d="M219.264,300.682c0,1.517-1.197,2.793-2.795,2.793H88.451c-1.516,0-2.795-1.197-2.795-2.793    v-18.288c0-1.519,1.199-2.797,2.795-2.797h128.098c1.518,0,2.796,1.199,2.796,2.797v18.288H219.264z" style="fill:#FFFFFF;"/><path d="M219.264,252.046c0,1.518-1.197,2.795-2.795,2.795H88.451c-1.516,0-2.795-1.198-2.795-2.795    v-18.288c0-1.517,1.199-2.796,2.795-2.796h128.098c1.518,0,2.796,1.198,2.796,2.796v18.288H219.264z" style="fill:#FFFFFF;"/><path d="M219.264,203.412c0,1.517-1.197,2.794-2.795,2.794H88.451c-1.516,0-2.795-1.197-2.795-2.794    v-18.289c0-1.518,1.199-2.795,2.795-2.795h128.098c1.518,0,2.796,1.198,2.796,2.795v18.289H219.264z" style="fill:#FFFFFF;"/><path d="M426.343,300.601c0,1.519-1.198,2.797-2.795,2.797H295.531c-1.519,0-2.796-1.199-2.796-2.797    v-18.288c0-1.517,1.2-2.793,2.796-2.793h128.098c1.516,0,2.793,1.197,2.793,2.793v18.288H426.343z" style="fill:#FFFFFF;"/><path d="M426.343,251.967c0,1.517-1.198,2.794-2.795,2.794H295.531c-1.519,0-2.796-1.197-2.796-2.794    v-18.288c0-1.518,1.2-2.795,2.796-2.795h128.098c1.516,0,2.793,1.198,2.793,2.795v18.288H426.343z" style="fill:#FFFFFF;"/><path d="M426.343,203.332c0,1.517-1.198,2.794-2.795,2.794H295.531c-1.519,0-2.796-1.198-2.796-2.794    v-18.208c0-1.518,1.2-2.795,2.796-2.795h128.098c1.516,0,2.793,1.198,2.793,2.795v18.208H426.343z" style="fill:#FFFFFF;"/></g></g><g id="Layer_1"/></svg>
